<?xml version="1.0" encoding="UTF-8" standalone="no"?>
<!-- Created with Inkscape (http://www.inkscape.org/) -->

<svg
   xmlns:dc="http://purl.org/dc/elements/1.1/"
   xmlns:cc="http://creativecommons.org/ns#"
   xmlns:rdf="http://www.w3.org/1999/02/22-rdf-syntax-ns#"
   xmlns:svg="http://www.w3.org/2000/svg"
   xmlns="http://www.w3.org/2000/svg"
   xmlns:sodipodi="http://sodipodi.sourceforge.net/DTD/sodipodi-0.dtd"
   xmlns:inkscape="http://www.inkscape.org/namespaces/inkscape"
   width="210mm"
   height="297mm"
   viewBox="0 0 210 297"
   version="1.1"
   id="svg8"
   inkscape:version="0.92.0 r15299"
   sodipodi:docname="FH_logo.svg"
   inkscape:export-filename="C:\Users\Lukas\Desktop\FH_logo.png"
   inkscape:export-xdpi="96"
   inkscape:export-ydpi="96">
  <defs
     id="defs2" />
  <sodipodi:namedview
     id="base"
     pagecolor="#ffffff"
     bordercolor="#666666"
     borderopacity="1.0"
     inkscape:pageopacity="0.0"
     inkscape:pageshadow="2"
     inkscape:zoom="1.3584475"
     inkscape:cx="422.58122"
     inkscape:cy="874.1277"
     inkscape:document-units="mm"
     inkscape:current-layer="layer1"
     showgrid="false"
     inkscape:window-width="1920"
     inkscape:window-height="1017"
     inkscape:window-x="-8"
     inkscape:window-y="-8"
     inkscape:window-maximized="1" />
  <metadata
     id="metadata5">
    <rdf:RDF>
      <cc:Work
         rdf:about="">
        <dc:format>image/svg+xml</dc:format>
        <dc:type
           rdf:resource="http://purl.org/dc/dcmitype/StillImage" />
        <dc:title />
      </cc:Work>
    </rdf:RDF>
  </metadata>
  <g
     inkscape:label="Ebene 1"
     inkscape:groupmode="layer"
     id="layer1">
    <path
       style="fill:#ff3974;fill-opacity:1;stroke:none;stroke-width:0.23752205px;stroke-linecap:butt;stroke-linejoin:bevel;stroke-opacity:1"
       d="M 14.176606,6.1073949 C 18.28631,36.096893 29.78459,64.307942 68.436455,70.946976 L 91.702739,61.636804 C 48.508277,55.47362 18.821706,22.168445 14.176606,6.1073949 Z"
       id="path4485"
       inkscape:connector-curvature="0"
       sodipodi:nodetypes="cccc" />
    <path
       style="fill:#ff3974;fill-opacity:1;stroke:none;stroke-width:0.23789611;stroke-linecap:butt;stroke-linejoin:miter;stroke-miterlimit:4;stroke-dasharray:none;stroke-opacity:1"
       d="M 35.652896,27.401154 C 52.302535,50.369565 95.2852,59.932856 95.2852,59.932856 c 12.66356,-4.040389 31.12485,-9.442608 47.69031,-8.118146 10.89444,0.871046 12.3856,-1.932755 17.76318,-1.965528 C 153.06856,43.080266 65.510806,39.429827 35.652896,27.401154 Z"
       id="path4485-0"
       inkscape:connector-curvature="0"
       sodipodi:nodetypes="ccscc" />
    <path
       style="fill:#ff3974;fill-opacity:1;stroke:none;stroke-width:0.23752205px;stroke-linecap:butt;stroke-linejoin:miter;stroke-opacity:1"
       d="m 132.91347,47.671897 c 27.26458,-8.270731 26.76324,-1.573031 33.11605,3.959127 0.0803,13.806465 10.12135,16.058406 10.12135,16.058406 4.5968,7.214436 4.83078,11.044964 5.19569,16.724322 0,0 -4.70804,-5.647165 -11.6622,-9.581966 -7.37935,-4.17538 -16.20646,-4.756964 -16.20646,-4.756964 l 7.70604,-2.303681 c 10.16114,-2.291377 -9.03212,-7.56218 -9.03212,-7.56218 4.30583,-2.391316 -5.21386,-1.828841 -5.21386,-1.828841 3.83025,-3.120791 15.4777,1.195339 15.4777,1.195339 -1.45537,-3.105169 -2.21259,-6.658666 -19.53734,-7.771667 z"
       id="path4504"
       inkscape:connector-curvature="0"
       sodipodi:nodetypes="ccssscccsccc" />
    <path
       style="fill:#ff3974;fill-opacity:1;stroke:none;stroke-width:0.23752205px;stroke-linecap:butt;stroke-linejoin:miter;stroke-opacity:1"
       d="M 96.550745,27.8123 C 108.03917,21.497836 164.7217,27.400286 141.12795,49.754518 136.80905,53.846522 104.60348,25.543159 96.550745,27.8123 Z"
       id="path4517-5"
       inkscape:connector-curvature="0"
       sodipodi:nodetypes="csc" />
    <path
       style="fill:#ff3974;fill-opacity:1;stroke:none;stroke-width:0.23752205px;stroke-linecap:butt;stroke-linejoin:miter;stroke-opacity:1"
       d="m 124.71663,13.257649 c 4.53377,-0.560015 16.84262,1.611535 24.1996,7.241156 11.043,8.450185 12.19576,17.372404 -1.99001,28.760243 -5.50783,4.421491 -4.57917,-23.134903 -22.20959,-36.001399 z"
       id="path4517-5-8"
       inkscape:connector-curvature="0"
       sodipodi:nodetypes="cssc" />
    <path
       style="fill:#ff3974;fill-opacity:1;stroke:none;stroke-width:0.23752205px;stroke-linecap:butt;stroke-linejoin:miter;stroke-opacity:1"
       d="m 158.43348,10.980461 c 8.72191,7.601891 13.86568,21.894261 10.35851,32.675061 -1.60835,4.943951 -3.03864,8.468166 -14.5843,7.385755 -7.61372,-0.71379 10.61309,-36.357054 4.22579,-40.060816 z"
       id="path4517-5-8-6"
       inkscape:connector-curvature="0"
       sodipodi:nodetypes="cssc" />
    <g
       aria-label="FH"
       style="font-style:normal;font-weight:normal;font-size:10.58333302px;line-height:6.61458302px;font-family:sans-serif;letter-spacing:0px;word-spacing:0px;fill:#000000;fill-opacity:1;stroke:none;stroke-width:0.26458332"
       id="text4568"
       transform="matrix(0.9600421,0,0,0.72019742,21.017449,13.116234)">
      <path
         d="m 55.979746,89.662946 h 42.719593 c -1.226892,3.906435 -5.285846,9.581286 -10.848234,10.394314 H 67.61579 v 9.20828 h 23.55429 c -2.291887,4.27482 -5.833447,9.45005 -11.834438,10.60415 l -11.719852,0.20983 v 12.11216 c -1.618495,6.03608 -4.984231,10.77687 -11.636044,11.84413 z"
         style="font-style:normal;font-variant:normal;font-weight:bold;font-stretch:normal;font-size:70.55555725px;font-family:sans-serif;-inkscape-font-specification:'sans-serif Bold';stroke-width:0.2890465"
         id="path4570"
         inkscape:connector-curvature="0"
         sodipodi:nodetypes="ccccccccccc" />
      <path
         d="m 101.45529,89.662946 c 6.40239,1.45797 9.81121,6.359623 10.65039,10.558474 v 8.92208 l 22.18137,0.11018 V 89.662946 c 5.56866,1.118108 9.98668,6.274261 10.65039,11.030774 v 31.865 c -0.72222,5.13192 -5.05761,10.10688 -10.65039,11.89677 v -24.50118 l -22.18137,-0.0487 v 12.28612 c -0.78801,5.07731 -4.10148,9.90825 -10.65039,12.26379 z"
         style="font-style:normal;font-variant:normal;font-weight:bold;font-stretch:normal;font-size:70.55555725px;font-family:sans-serif;-inkscape-font-specification:'sans-serif Bold';fill:#3d3d3d;fill-opacity:1;stroke-width:0.26458332"
         id="path4572"
         inkscape:connector-curvature="0"
         sodipodi:nodetypes="ccccccccccccc" />
    </g>
  </g>
</svg>
